<svg xmlns="http://www.w3.org/2000/svg" width="1024" height="1024" viewBox="0 0 1024 1024">
  <defs>
    <linearGradient id="bg" x1="0" y1="0" x2="1" y2="1">
      <stop offset="0%" stop-color="#0d0d1a"/>
      <stop offset="100%" stop-color="#0055dd"/>
    </linearGradient>
    <clipPath id="squircle">
      <path d="
        M 512 0
        C 705 0, 808 0, 873 18
        C 910 32, 940 52, 966 78
        C 992 104, 1012 134, 1024 171
        C 1024 236, 1024 339, 1024 512
        C 1024 685, 1024 788, 1006 853
        C 992 890, 972 920, 946 946
        C 920 972, 890 992, 853 1006
        C 788 1024, 685 1024, 512 1024
        C 339 1024, 236 1024, 171 1006
        C 134 992, 104 972, 78 946
        C 52 920, 32 890, 18 853
        C 0 788, 0 685, 0 512
        C 0 339, 0 236, 18 171
        C 32 134, 52 104, 78 78
        C 104 52, 134 32, 171 18
        C 236 0, 339 0, 512 0 Z"/>
    </clipPath>
  </defs>

  <!-- Squircle background -->
  <rect width="1024" height="1024" fill="url(#bg)" clip-path="url(#squircle)"/>

  <!-- Webcam glyph -->
  <g transform="translate(211, 211) scale(2.35)" fill="white" clip-path="url(#squircle)">
    <path d="M168,104a40,40,0,1,0-40,40A40,40,0,0,0,168,104Zm-64,0a24,24,0,1,1,24,24A24,24,0,0,1,104,104Zm120,96H136V183.6a80,80,0,1,0-16,0V200H32a8,8,0,0,0,0,16H224a8,8,0,0,0,0-16ZM64,104a64,64,0,1,1,64,64A64.07,64.07,0,0,1,64,104Z"/>
  </g>
</svg>
